<?xml version="1.0" standalone="no"?>
<!DOCTYPE svg PUBLIC "-//W3C//DTD SVG 20010904//EN"
 "http://www.w3.org/TR/2001/REC-SVG-20010904/DTD/svg10.dtd">
<svg version="1.0" xmlns="http://www.w3.org/2000/svg"
 width="183.000000pt" height="182.000000pt" viewBox="0 0 183.000000 182.000000"
 preserveAspectRatio="xMidYMid meet">

<g transform="translate(0.000000,182.000000) scale(0.100000,-0.100000)"
fill="#000000" stroke="none">
<path d="M783 1809 c-211 -27 -380 -114 -534 -276 -106 -111 -176 -235 -215
-379 -29 -106 -27 -351 4 -457 91 -316 354 -560 673 -625 92 -19 149 -19 149
-1 0 5 -16 33 -35 63 -30 47 -42 57 -78 66 -152 39 -249 89 -351 179 -292 260
-333 707 -91 1008 147 183 351 283 579 283 326 0 602 -194 707 -496 22 -64 53
-249 44 -264 -9 -14 64 -89 92 -96 16 -4 28 -2 34 7 14 22 10 217 -5 289 -36
169 -125 331 -249 452 -88 86 -132 117 -239 168 -95 45 -167 65 -282 80 -90
11 -113 11 -203 -1z"/>
<path d="M852 1504 c-22 -15 -22 -18 -22 -255 l0 -239 -224 0 -224 0 -16 -25
c-9 -13 -16 -38 -16 -55 l0 -30 300 0 300 0 0 290 c0 277 -1 291 -20 310 -24
24 -48 25 -78 4z"/>
<path d="M427 1372 c-26 -26 -47 -52 -47 -58 0 -5 22 -31 49 -58 57 -57 67
-56 131 9 l44 45 -54 55 c-30 30 -59 55 -65 55 -6 0 -32 -22 -58 -48z"/>
<path d="M1237 1372 c-26 -26 -47 -52 -47 -58 0 -13 93 -104 106 -104 5 0 33
24 62 53 l52 53 -53 52 c-29 29 -57 52 -63 52 -5 0 -31 -22 -57 -48z"/>
<path d="M1299 977 c-235 -66 -323 -326 -175 -520 l27 -36 -29 -15 c-42 -21
-125 -116 -151 -171 -12 -26 -29 -73 -37 -105 -13 -53 -13 -62 1 -89 16 -32
50 -47 83 -37 15 5 23 22 32 69 20 107 86 194 185 245 42 22 64 26 135 26 72
1 94 -3 141 -25 107 -50 176 -138 194 -247 9 -54 43 -81 81 -64 39 18 49 53
35 118 -24 107 -103 222 -188 275 l-33 20 30 38 c73 90 92 229 45 329 -14 30
-25 60 -25 68 0 8 -10 18 -22 23 -13 5 -31 18 -41 29 -27 30 -125 70 -187 76
-32 3 -74 0 -101 -7z m156 -132 c52 -22 112 -96 120 -147 17 -113 -57 -211
-177 -233 -71 -14 -162 35 -198 105 -30 59 -27 145 6 195 63 96 146 123 249
80z"/>
<path d="M419 604 l-54 -54 58 -58 57 -57 57 57 57 58 -44 46 c-69 70 -69 70
-131 8z"/>
</g>
</svg>
