<?xml version="1.0" standalone="no"?>
<!DOCTYPE svg PUBLIC "-//W3C//DTD SVG 20010904//EN"
 "http://www.w3.org/TR/2001/REC-SVG-20010904/DTD/svg10.dtd">
<svg version="1.0" xmlns="http://www.w3.org/2000/svg"
 width="128.000000pt" height="128.000000pt" viewBox="0 0 128.000000 128.000000"
 preserveAspectRatio="xMidYMid meet">

<g transform="translate(0.000000,128.000000) scale(0.100000,-0.100000)"
fill="#000000" stroke="none">
<path d="M716 1174 c-9 -9 -16 -32 -16 -55 l0 -39 -134 0 -135 0 -3 48 c-3 41
-6 47 -27 50 -29 5 -41 -12 -41 -60 l0 -38 -119 0 c-174 0 -161 34 -161 -405
0 -341 1 -353 21 -379 l20 -26 225 0 224 0 0 30 0 30 -103 0 c-57 0 -152 3
-210 7 l-107 6 0 334 0 333 105 0 105 0 0 -28 c0 -37 21 -65 46 -61 15 3 20
14 22 47 l3 42 134 0 134 0 3 -36 c6 -71 68 -74 68 -4 l0 40 90 0 90 0 0 -150
0 -150 35 0 35 0 0 165 c0 211 4 205 -145 205 l-105 0 0 45 c0 52 -27 77 -54
49z"/>
<path d="M292 804 c-31 -22 -26 -63 10 -83 24 -14 28 -14 47 3 27 25 27 61 -1
80 -28 20 -28 20 -56 0z"/>
<path d="M532 804 c-30 -21 -29 -59 3 -80 23 -15 27 -15 50 0 32 21 33 59 3
80 -12 9 -25 16 -28 16 -3 0 -16 -7 -28 -16z"/>
<path d="M762 804 c-31 -22 -26 -63 10 -83 24 -14 28 -14 47 3 27 25 27 61 -1
80 -28 20 -28 20 -56 0z"/>
<path d="M835 614 c-55 -19 -109 -66 -143 -122 -24 -41 -27 -57 -27 -132 0
-75 3 -91 28 -133 110 -186 388 -173 476 23 28 61 28 159 0 220 -57 127 -205
190 -334 144z m202 -87 c109 -76 120 -215 24 -308 -65 -63 -138 -76 -216 -40
-157 73 -157 294 0 367 49 23 145 14 192 -19z"/>
<path d="M902 498 c-14 -14 -16 -136 -3 -156 5 -9 29 -12 82 -10 71 3 74 4 74
28 0 23 -4 25 -47 28 l-48 3 0 48 c0 46 -12 71 -35 71 -6 0 -16 -5 -23 -12z"/>
<path d="M292 594 c-27 -18 -29 -55 -4 -77 35 -32 82 -10 82 38 0 20 -32 55
-50 55 -3 0 -16 -7 -28 -16z"/>
<path d="M532 594 c-39 -27 -19 -94 27 -94 24 0 51 31 51 58 0 18 -33 52 -50
52 -3 0 -16 -7 -28 -16z"/>
</g>
</svg>
