<?xml version="1.0" standalone="no"?>
<!DOCTYPE svg PUBLIC "-//W3C//DTD SVG 20010904//EN"
 "http://www.w3.org/TR/2001/REC-SVG-20010904/DTD/svg10.dtd">
<svg version="1.0" xmlns="http://www.w3.org/2000/svg"
 width="386.000000pt" height="350.000000pt" viewBox="0 0 386.000000 350.000000"
 preserveAspectRatio="xMidYMid meet">

<g transform="translate(0.000000,350.000000) scale(0.100000,-0.100000)"
fill="#000000" stroke="none">
<path d="M3715 3408 c-16 -6 -70 -32 -120 -58 -49 -26 -157 -81 -240 -123
-796 -403 -1142 -689 -1587 -1309 -51 -71 -100 -140 -108 -153 -8 -13 -37 -59
-64 -102 -124 -198 -242 -397 -345 -585 -29 -54 -40 -58 -60 -26 -8 13 -46 66
-85 117 -138 185 -251 288 -395 359 -75 37 -77 37 -196 37 -101 -1 -129 -4
-177 -23 -70 -28 -200 -112 -222 -143 -34 -49 -20 -69 114 -159 19 -13 71 -54
115 -91 261 -218 450 -490 605 -874 67 -166 75 -182 100 -190 20 -6 256 63
311 90 39 21 72 77 147 250 150 348 407 841 590 1135 429 687 875 1198 1437
1646 83 66 167 132 188 147 20 16 37 37 37 48 0 21 -3 22 -45 7z"/>
</g>
</svg>
